<svg width="22" height="23" viewBox="0 0 22 23" fill="none" xmlns="http://www.w3.org/2000/svg">
<path d="M13.7972 10.5625C14.3955 10.5625 14.8805 10.0775 14.8805 9.47917C14.8805 8.88086 14.3955 8.39583 13.7972 8.39583C13.1988 8.39583 12.7138 8.88086 12.7138 9.47917C12.7138 10.0775 13.1988 10.5625 13.7972 10.5625Z" fill="#0D1217"/>
<path d="M8.38049 9.47917C8.38049 10.0775 7.89547 10.5625 7.29716 10.5625C6.69885 10.5625 6.21383 10.0775 6.21383 9.47917C6.21383 8.88086 6.69885 8.39583 7.29716 8.39583C7.89547 8.39583 8.38049 8.88086 8.38049 9.47917Z" fill="#0D1217"/>
<path fill-rule="evenodd" clip-rule="evenodd" d="M6.48466 4.36114V4.0625C6.48466 1.81884 8.3035 0 10.5472 0C12.7908 0 14.6097 1.81884 14.6097 4.0625V4.36114C15.323 4.38322 15.9581 4.42282 16.5217 4.49387C17.823 4.65791 18.8764 5.00305 19.6902 5.79778C19.9617 6.06294 20.203 6.35732 20.4098 6.67555C21.0295 7.62934 21.1613 8.72995 21.067 10.0382C20.9746 11.3186 20.6531 12.9261 20.2451 14.966L20.2244 15.0696C19.9412 16.4854 19.7159 17.6122 19.4371 18.4986C19.1499 19.4115 18.7832 20.1497 18.1696 20.7476C17.9586 20.9533 17.7303 21.1404 17.4873 21.307C16.7806 21.7914 15.9849 22.0062 15.0333 22.1088C14.1095 22.2084 12.9604 22.2083 11.5166 22.2083H9.57788C8.13402 22.2083 6.98496 22.2084 6.06112 22.1088C5.10957 22.0062 4.31381 21.7914 3.60716 21.307C3.36412 21.1404 3.13583 20.9533 2.92482 20.7476C2.3113 20.1497 1.94456 19.4115 1.65738 18.4986C1.37856 17.6122 1.15322 16.4854 0.87006 15.0696L0.849396 14.9663C0.441368 12.9262 0.119839 11.3186 0.0274924 10.0382C-0.0668626 8.72995 0.0649905 7.62934 0.684698 6.67555C0.891463 6.35732 1.1328 6.06294 1.4043 5.79778C2.21803 5.00305 3.27141 4.65791 4.57277 4.49387C5.13629 4.42283 5.77142 4.38322 6.48466 4.36114ZM8.10966 4.0625C8.10966 2.71631 9.20096 1.625 10.5472 1.625C11.8934 1.625 12.9847 2.71631 12.9847 4.0625V4.33571C12.5251 4.33333 12.04 4.33333 11.5281 4.33333H9.56633C9.05445 4.33333 8.56926 4.33333 8.10966 4.33571V4.0625ZM2.53969 6.96032C2.98867 6.52183 3.63166 6.25036 4.77601 6.10611C5.93614 5.95986 7.47299 5.95833 9.6248 5.95833H11.4697C13.6215 5.95833 15.1583 5.95986 16.3184 6.10611C17.4628 6.25036 18.1058 6.52183 18.5548 6.96032C18.7405 7.14175 18.9057 7.34317 19.0471 7.5609C19.389 8.08716 19.5291 8.7709 19.4462 9.92132C19.3621 11.0876 19.0622 12.5949 18.6402 14.7049C18.3457 16.1771 18.1365 17.2178 17.887 18.011C17.6428 18.7871 17.3834 19.2449 17.0355 19.5839C16.8911 19.7246 16.7349 19.8527 16.5686 19.9667C16.1679 20.2413 15.6681 20.406 14.8592 20.4931C14.0325 20.5822 12.971 20.5833 11.4697 20.5833H9.6248C8.12343 20.5833 7.06191 20.5822 6.23525 20.4931C5.42632 20.406 4.92657 20.2413 4.52586 19.9667C4.35957 19.8527 4.20337 19.7246 4.059 19.5839C3.71109 19.2449 3.45163 18.7871 3.20749 18.011C2.95801 17.2178 2.74875 16.1771 2.45431 14.7049C2.0323 12.5949 1.7324 11.0876 1.64828 9.92132C1.56531 8.7709 1.70541 8.08716 2.04733 7.5609C2.18881 7.34317 2.35393 7.14175 2.53969 6.96032Z" fill="#0D1217"/>
</svg>
